HIERARCHY
ROOT Hips
{
	OFFSET -3.958830 18.904000 13.208200
	CHANNELS 6 Xposition Yposition Zposition Zrotation Yrotation Xrotation 
	JOINT LHipJoint
	{
		OFFSET 0.000000 0.000000 0.000000
		CHANNELS 3 Zrotation Yrotation Xrotation
		JOINT LeftUpLeg
		{
			OFFSET 1.800000 -1.400000 0.085000
			CHANNELS 3 Zrotation Yrotation Xrotation
			JOINT LeftLeg
			{
				OFFSET 2.215000 -6.000000 0.000000
				CHANNELS 3 Zrotation Yrotation Xrotation
				JOINT LeftFoot
				{
					OFFSET 2.500000 -6.900000 0.000000
					CHANNELS 3 Zrotation Yrotation Xrotation
					JOINT LeftToeBase
					{
						OFFSET 0.200000 -0.500000 1.950000
						CHANNELS 3 Zrotation Yrotation Xrotation
						End Site
						{
							OFFSET 0.000000 0.000000 0.000000
						}
					}
				}
			}
		}
	}
	JOINT RHipJoint
	{
		OFFSET 0.000000 0.000000 0.000000
		CHANNELS 3 Zrotation Yrotation Xrotation
		JOINT RightUpLeg
		{
			OFFSET -1.800000 -1.400000 0.085000
			CHANNELS 3 Zrotation Yrotation Xrotation
			JOINT RightLeg
			{
				OFFSET -2.215000 -6.000000 0.000000
				CHANNELS 3 Zrotation Yrotation Xrotation
				JOINT RightFoot
				{
					OFFSET -2.500000 -6.900000 0.000000
					CHANNELS 3 Zrotation Yrotation Xrotation
					JOINT RightToeBase
					{
						OFFSET -0.200000 -0.500000 1.950000
						CHANNELS 3 Zrotation Yrotation Xrotation
						End Site
						{
							OFFSET 0.000000 0.000000 0.000000
						}
					}
				}
			}
		}
	}
	JOINT LowerBack
	{
		OFFSET 0.000000 0.000000 0.000000
		CHANNELS 3 Zrotation Yrotation Xrotation
		JOINT Spine
		{
			OFFSET -0.087000 1.940000 -0.288900
			CHANNELS 3 Zrotation Yrotation Xrotation
			JOINT Spine1
			{
				OFFSET 0.000000 1.950000 0.060000
				CHANNELS 3 Zrotation Yrotation Xrotation
				JOINT Neck
				{
					OFFSET 0.000000 0.000000 0.000000
					CHANNELS 3 Zrotation Yrotation Xrotation
					JOINT Neck1
					{
						OFFSET 0.000000 1.600000 0.340000
						CHANNELS 3 Zrotation Yrotation Xrotation
						JOINT Head
						{
							OFFSET 0.000000 1.667000 -0.240000
							CHANNELS 3 Zrotation Yrotation Xrotation
							End Site
							{
								OFFSET 0.000000 0.000000 0.000000
							}
						}
					}
				}
				JOINT LeftShoulder
				{
					OFFSET 0.000000 0.000000 0.000000
					CHANNELS 3 Zrotation Yrotation Xrotation
					JOINT LeftArm
					{
						OFFSET 2.700000 1.550000 -0.730000
						CHANNELS 3 Zrotation Yrotation Xrotation
						JOINT LeftForeArm
						{
							OFFSET 5.450000 0.000000 0.000000
							CHANNELS 3 Zrotation Yrotation Xrotation
							JOINT LeftHand
							{
								OFFSET 3.450000 0.000000 0.000000
								CHANNELS 3 Zrotation Yrotation Xrotation
								JOINT LeftHandIndex1
								{
									OFFSET 0.750000 0.000000 0.000000
									CHANNELS 3 Zrotation Yrotation Xrotation
									End Site
									{
										OFFSET 0.000000 0.000000 0.000000
									}
								}
							}
						}
					}
				}
				JOINT RightShoulder
				{
					OFFSET 0.000000 0.000000 0.000000
					CHANNELS 3 Zrotation Yrotation Xrotation
					JOINT RightArm
					{
						OFFSET -2.700000 1.550000 -0.730000
						CHANNELS 3 Zrotation Yrotation Xrotation
						JOINT RightForeArm
						{
							OFFSET -5.450000 0.000000 0.000000
							CHANNELS 3 Zrotation Yrotation Xrotation
							JOINT RightHand
							{
								OFFSET -3.450000 0.000000 0.000000
								CHANNELS 3 Zrotation Yrotation Xrotation
								JOINT RightHandIndex1
								{
									OFFSET -0.750000 0.000000 0.000000
									CHANNELS 3 Zrotation Yrotation Xrotation
									End Site
									{
										OFFSET 0.000000 0.000000 0.000000
									}
								}
							}
						}
					}
				}
			}
		}
	}
}
MOTION
Frames: 12
Frame Time: 0.016667
0.663480 17.133660 -1.421300 -7.900114 -10.976550 15.626909 -15.107755 12.509511 3.752498 -4.023316 -2.256775 -12.808778 -7.132579 2.392084 -6.670680 -0.158834 2.832548 3.659813 0.171150 0.033310 0.128270 18.307530 -10.735379 3.276194 -7.932091 -1.488032 9.577270 7.785098 -5.435130 0.866821 -0.813807 -5.061605 2.756144 -0.007280 0.061080 0.119750 -3.574676 -1.013357 -8.300140 10.618954 5.426077 -4.061842 0.026545 5.092276 -9.427576 3.190927 -2.378572 -14.667733 -8.881682 4.433646 56.536853 -1.349030 1.801220 -0.184870 -17.143581 -10.903766 3.369968 -0.885870 -2.931150 0.113193 9.848485 -14.706757 -0.244651 -3.829750 2.751542 0.325530 0.010560 0.099890 0.092850 11.749085 15.729874 10.023309 2.719398 5.239092 -0.644482 -8.034264 6.037872 0.038527 2.663830 -1.036048 -0.053500 0.128560 0.014140 -0.102970 
0.663840 17.134250 -1.422150 -7.983386 -11.000355 15.678104 -15.101664 12.513112 3.755011 -3.920424 -2.245860 -12.830532 -7.230717 2.393194 -6.746992 -0.157880 2.844600 3.657152 0.173300 0.033050 0.129030 18.313782 -10.731880 3.270643 -7.889152 -1.498318 9.512223 7.791623 -5.439287 0.921888 -0.813286 -5.052323 2.761832 -0.007960 0.061750 0.120660 -3.593858 -1.026342 -8.294194 10.817609 5.433444 -4.164390 -0.005707 5.104935 -9.638246 3.174992 -2.367324 -14.594029 -8.899779 4.411505 56.678409 -1.312770 1.720620 -0.193670 -17.303572 -10.823516 3.328100 -0.736083 -2.765543 0.125865 9.630554 -14.796404 -0.218532 -3.825433 2.753067 0.329740 0.009900 0.101040 0.095260 11.906110 15.633057 9.937864 2.519733 5.240309 -0.661627 -7.914162 6.129863 0.046613 2.660481 -1.033890 -0.054140 0.129930 0.012950 -0.103400 
0.664340 17.135660 -1.423020 -8.085591 -11.029326 15.747008 -15.092095 12.520287 3.759094 -3.782191 -2.235934 -12.885940 -7.361360 2.397716 -6.815258 -0.155106 2.854634 3.655394 0.176440 0.033590 0.130580 18.322146 -10.729605 3.263134 -7.870073 -1.504607 9.410772 7.827991 -5.451283 1.023856 -0.812339 -5.040079 2.769036 -0.009760 0.060600 0.120450 -3.621191 -1.045483 -8.289865 11.078628 5.439395 -4.262547 -0.096917 5.129876 -9.872138 3.153707 -2.333444 -14.536561 -8.885969 4.377105 56.842005 -1.254280 1.643490 -0.168890 -17.529924 -10.798081 3.300998 -0.463561 -2.525905 0.130026 9.365777 -14.853426 -0.184593 -3.818868 2.756628 0.333970 0.007910 0.101910 0.097430 12.127360 15.565486 9.861158 2.314272 5.226665 -0.692989 -7.879028 6.145790 0.051911 2.658855 -1.033331 -0.053360 0.129820 0.010750 -0.104460 
0.664540 17.137080 -1.424570 -8.200971 -11.050627 15.800582 -15.082287 12.528998 3.761628 -3.620313 -2.225688 -12.942415 -7.470684 2.402034 -6.866730 -0.154647 2.866844 3.652165 0.177700 0.031180 0.130530 18.330702 -10.727117 3.256783 -7.829491 -1.516840 9.331740 7.830174 -5.458990 1.114551 -0.810975 -5.029250 2.774752 -0.011900 0.060430 0.121550 -3.649109 -1.067036 -8.285478 11.356127 5.447897 -4.341981 -0.187480 5.157180 -10.043781 3.136964 -2.301192 -14.503787 -8.868343 4.344716 56.963507 -1.201250 1.569700 -0.129450 -17.722700 -10.803045 3.292408 -0.241711 -2.303303 0.134494 9.139491 -14.888831 -0.158962 -3.814096 2.760207 0.338900 0.006700 0.102390 0.099410 12.307220 15.531740 9.812400 2.164039 5.208304 -0.725400 -7.878642 6.101275 0.056953 2.657789 -1.032785 -0.054060 0.129180 0.010350 -0.105820 
0.664300 17.138500 -1.426330 -8.309476 -11.047697 15.856189 -15.072405 12.539532 3.765693 -3.486802 -2.222397 -13.007130 -7.525285 2.400152 -6.910531 -0.152561 2.869667 3.650747 0.181900 0.033380 0.134090 18.338450 -10.728043 3.249947 -7.780083 -1.532565 9.244559 7.829567 -5.469073 1.251511 -0.811335 -5.014439 2.778879 -0.012540 0.055930 0.122390 -3.675592 -1.086454 -8.283593 11.613251 5.442623 -4.412044 -0.299773 5.175652 -10.219021 3.125091 -2.246741 -14.489931 -8.796158 4.285094 57.114744 -1.122340 1.489080 -0.169340 -17.845535 -10.810217 3.296811 -0.060826 -2.072597 0.137996 8.956177 -15.018945 -0.132131 -3.804638 2.765527 0.343870 0.001890 0.106840 0.101290 12.403588 15.494470 9.773467 2.095380 5.237767 -0.734280 -7.821223 5.962982 0.065068 2.662035 -1.031588 -0.052360 0.127330 0.006700 -0.106390 
0.663560 17.140020 -1.428550 -8.382371 -11.026656 15.910847 -15.064948 12.552455 3.771204 -3.381774 -2.228041 -13.097797 -7.562734 2.398515 -6.914741 -0.150220 2.865015 3.650781 0.189000 0.038450 0.140510 18.342368 -10.731651 3.243793 -7.743967 -1.543144 9.140907 7.840656 -5.482407 1.407342 -0.812889 -4.996668 2.783879 -0.013280 0.048770 0.123800 -3.692135 -1.105541 -8.286462 11.788462 5.427229 -4.464675 -0.387902 5.186588 -10.413703 3.114487 -2.187234 -14.509345 -8.717341 4.232016 57.314900 -1.016110 1.414410 -0.268860 -17.898554 -10.826085 3.321685 0.061060 -1.847478 0.144704 8.766092 -15.115574 -0.105254 -3.794018 2.770947 0.349610 -0.004850 0.113360 0.103030 12.443258 15.465814 9.751004 2.115461 5.271273 -0.740389 -7.824387 5.805112 0.072799 2.667055 -1.030318 -0.048060 0.124510 0.001590 -0.107280 
0.662700 17.141040 -1.431450 -8.446585 -10.998630 15.940169 -15.058595 12.561571 3.775492 -3.282743 -2.226394 -13.149684 -7.606740 2.397053 -6.946015 -0.147389 2.865809 3.649152 0.193090 0.041540 0.143420 18.346638 -10.734158 3.236678 -7.705797 -1.554899 9.059502 7.846841 -5.496494 1.559766 -0.812915 -4.984005 2.786922 -0.013980 0.044500 0.125430 -3.708150 -1.120624 -8.285645 11.947366 5.420275 -4.501723 -0.463565 5.198170 -10.532487 3.103484 -2.144556 -14.509147 -8.658406 4.183510 57.379361 -0.916320 1.339100 -0.344870 -17.943298 -10.837629 3.332829 0.147976 -1.728808 0.146449 8.633736 -15.126397 -0.089186 -3.788144 2.775304 0.352640 -0.008970 0.117240 0.103800 12.479564 15.439052 9.734544 2.084371 5.262279 -0.742652 -7.769628 5.677408 0.080423 2.670888 -1.029589 -0.044620 0.121740 -0.001030 -0.107250 
0.661820 17.142660 -1.434040 -8.469282 -10.957512 15.959310 -15.055543 12.569913 3.780494 -3.229964 -2.228271 -13.195103 -7.625541 2.394320 -6.965153 -0.144117 2.863585 3.648172 0.195700 0.043400 0.146710 18.347386 -10.739755 3.228903 -7.671255 -1.562900 8.971579 7.840458 -5.512553 1.734784 -0.812194 -4.971642 2.789312 -0.015630 0.039740 0.128340 -3.713647 -1.128853 -8.286147 12.018387 5.416374 -4.548319 -0.512077 5.204044 -10.688493 3.112255 -2.068926 -14.502354 -8.530795 4.089868 57.506962 -0.937080 1.298960 -0.366130 -18.050291 -10.857282 3.326861 0.306295 -1.609654 0.147468 8.459930 -15.173892 -0.064624 -3.783486 2.780443 0.354160 -0.011900 0.121800 0.103930 12.549227 15.399750 9.712266 2.036556 5.237878 -0.740499 -7.673086 5.542342 0.089340 2.675736 -1.028815 -0.040470 0.117730 -0.003540 -0.107010 
0.660140 17.143940 -1.437090 -8.483162 -10.939493 15.967981 -15.053999 12.574501 3.783758 -3.178377 -2.227103 -13.228285 -7.666877 2.395490 -6.978639 -0.141350 2.863950 3.647147 0.197370 0.044230 0.148740 18.347468 -10.744108 3.223308 -7.637304 -1.569777 8.897898 7.838903 -5.523295 1.857714 -0.810949 -4.961241 2.792742 -0.017150 0.036980 0.129480 -3.715688 -1.131574 -8.286089 12.041444 5.424311 -4.582879 -0.519466 5.215646 -10.800564 3.108032 -2.020237 -14.497909 -8.453644 4.024725 57.571376 -0.904730 1.244130 -0.389140 -18.125791 -10.873615 3.329950 0.391741 -1.501457 0.146928 8.365026 -15.248677 -0.049842 -3.779361 2.783702 0.355420 -0.014110 0.124270 0.104070 12.626007 15.374221 9.694729 1.950848 5.199040 -0.744243 -7.577608 5.415265 0.097216 2.679444 -1.026991 -0.037960 0.115790 -0.005130 -0.106910 
0.657730 17.144560 -1.440380 -8.481177 -10.940249 15.954319 -15.054850 12.575016 3.783670 -3.133862 -2.223211 -13.239561 -7.699802 2.398215 -6.976226 -0.139916 2.864773 3.645794 0.198290 0.044590 0.150580 18.346194 -10.748212 3.219233 -7.617802 -1.575803 8.852806 7.856177 -5.535748 1.944411 -0.810515 -4.956629 2.793090 -0.018320 0.034390 0.130470 -3.712001 -1.126351 -8.283134 11.999019 5.437368 -4.610851 -0.481322 5.220180 -10.851139 3.103904 -1.976432 -14.482659 -8.372435 3.957316 57.570201 -0.908140 1.213250 -0.428850 -18.189242 -10.895302 3.337050 0.470802 -1.412093 0.144310 8.285441 -15.279554 -0.039516 -3.776569 2.786854 0.356440 -0.015850 0.125990 0.103140 12.701431 15.353573 9.669845 1.842069 5.192264 -0.749389 -7.492997 5.281811 0.102202 2.683140 -1.025647 -0.036190 0.113670 -0.005820 -0.107260 
0.655080 17.144690 -1.444060 -8.445681 -10.952387 15.925208 -15.055960 12.572045 3.782103 -3.114063 -2.218171 -13.235520 -7.750023 2.405198 -6.958180 -0.136588 2.867829 3.645246 0.196450 0.042250 0.148900 18.345246 -10.753218 3.214786 -7.636488 -1.572977 8.821991 7.888702 -5.552467 2.023881 -0.809496 -4.957730 2.792350 -0.020690 0.035530 0.131950 -3.708393 -1.114669 -8.277387 11.911123 5.443230 -4.642590 -0.442858 5.215268 -10.850682 3.082025 -1.944417 -14.467878 -8.306053 3.911312 57.500272 -0.872760 1.184960 -0.379420 -18.262390 -10.947306 3.357283 0.600716 -1.300589 0.138041 8.188011 -15.258726 -0.028351 -3.776087 2.790615 0.355250 -0.015390 0.125790 0.103460 12.825769 15.355022 9.649095 1.694292 5.162997 -0.761149 -7.419333 5.205930 0.105818 2.685918 -1.025472 -0.035050 0.112040 -0.005400 -0.105960 
0.652410 17.144200 -1.447690 -8.407659 -10.968785 15.891498 -15.058094 12.566704 3.779220 -3.072016 -2.208919 -13.225438 -7.848566 2.418225 -6.931362 -0.135189 2.876959 3.643653 0.193150 0.037690 0.145690 18.343770 -10.758234 3.210068 -7.664612 -1.568559 8.815904 7.894370 -5.566692 2.087530 -0.808202 -4.962276 2.792282 -0.022930 0.038400 0.132580 -3.702510 -1.098943 -8.269401 11.798508 5.452053 -4.680382 -0.388885 5.205417 -10.802726 3.068386 -1.905329 -14.462224 -8.214230 3.855117 57.387986 -0.874400 1.175530 -0.311090 -18.310942 -11.012604 3.390777 0.705499 -1.184918 0.130249 8.131874 -15.200812 -0.024382 -3.777500 2.791580 0.355130 -0.013350 0.123900 0.104290 12.913761 15.363273 9.642047 1.574745 5.108303 -0.774044 -7.366213 5.174557 0.109078 2.685464 -1.025226 -0.036640 0.111980 -0.003930 -0.105820 
